<svg xmlns="http://www.w3.org/2000/svg" viewBox="0 0 520 620" role="img" aria-labelledby="title desc">
  <title id="title">Qian Xiaohe profile image placeholder</title>
  <desc id="desc">A refined placeholder portrait for Qian Xiaohe, used because no public ResearchGate profile photo was exposed in search results.</desc>
  <defs>
    <linearGradient id="bg" x1="0" x2="1" y1="0" y2="1">
      <stop offset="0%" stop-color="#0f2b46"/>
      <stop offset="58%" stop-color="#2f6f73"/>
      <stop offset="100%" stop-color="#d7a33a"/>
    </linearGradient>
    <linearGradient id="paper" x1="0" x2="1">
      <stop offset="0%" stop-color="#f5f7f2"/>
      <stop offset="100%" stop-color="#dfe9e4"/>
    </linearGradient>
  </defs>
  <rect width="520" height="620" rx="34" fill="url(#bg)"/>
  <path d="M0 398c100-56 184-52 276-17 91 35 162 17 244-35v274H0z" fill="#eef4ef" opacity=".94"/>
  <path d="M58 421c58-28 111-29 159-7 54 25 113 25 171-1 29-13 53-31 74-52" fill="none" stroke="#c8a24a" stroke-width="8" stroke-linecap="round" opacity=".9"/>
  <circle cx="260" cy="216" r="98" fill="#f3efe5"/>
  <path d="M153 348c18-58 59-90 107-90s89 32 107 90" fill="#f3efe5"/>
  <text x="260" y="520" text-anchor="middle" font-family="Arial, Helvetica, sans-serif" font-size="74" font-weight="700" fill="#0f2b46">QX</text>
  <text x="260" y="568" text-anchor="middle" font-family="Arial, Helvetica, sans-serif" font-size="17" fill="#315f63">Hydrology · Soil Erosion · Mountain Hazards</text>
</svg>
